<svg width="36" height="36" viewBox="0 0 36 36" fill="none" xmlns="http://www.w3.org/2000/svg">
<mask id="mask0_1704_43899" style="mask-type:alpha" maskUnits="userSpaceOnUse" x="0" y="0" width="36" height="36">
<rect width="36" height="36" fill="#D9D9D9"/>
</mask>
<g mask="url(#mask0_1704_43899)">
<path d="M16.6496 17.85L12.5996 29.025C12.5746 29.1 12.5121 29.1875 12.4121 29.2875L11.2121 30.45C10.9871 30.675 10.7309 30.7313 10.4434 30.6188C10.1559 30.5063 9.98711 30.3 9.93711 30L9.78711 28.3875L9.82461 28.05L14.0246 16.425C14.3996 16.775 14.8059 17.0688 15.2434 17.3063C15.6809 17.5438 16.1496 17.725 16.6496 17.85ZM17.9996 16.5C16.7496 16.5 15.6871 16.0625 14.8121 15.1875C13.9371 14.3125 13.4996 13.25 13.4996 12C13.4996 11.025 13.7809 10.1563 14.3434 9.39375C14.9059 8.63125 15.6246 8.1 16.4996 7.8V6C16.4996 5.575 16.6434 5.21875 16.9309 4.93125C17.2184 4.64375 17.5746 4.5 17.9996 4.5C18.4246 4.5 18.7809 4.64375 19.0684 4.93125C19.3559 5.21875 19.4996 5.575 19.4996 6V7.8C20.3746 8.1 21.0934 8.63125 21.6559 9.39375C22.2184 10.1563 22.4996 11.025 22.4996 12C22.4996 13.25 22.0621 14.3125 21.1871 15.1875C20.3121 16.0625 19.2496 16.5 17.9996 16.5ZM17.9996 13.5C18.4246 13.5 18.7809 13.3563 19.0684 13.0688C19.3559 12.7813 19.4996 12.425 19.4996 12C19.4996 11.575 19.3559 11.2187 19.0684 10.9312C18.7809 10.6437 18.4246 10.5 17.9996 10.5C17.5746 10.5 17.2184 10.6437 16.9309 10.9312C16.6434 11.2187 16.4996 11.575 16.4996 12C16.4996 12.425 16.6434 12.7813 16.9309 13.0688C17.2184 13.3563 17.5746 13.5 17.9996 13.5ZM19.3496 17.85C19.8496 17.725 20.3184 17.5438 20.7559 17.3063C21.1934 17.0688 21.5996 16.775 21.9746 16.425L26.1746 28.05C26.1996 28.125 26.2121 28.2375 26.2121 28.3875L26.0621 30C26.0121 30.3 25.8434 30.5063 25.5559 30.6188C25.2684 30.7313 25.0121 30.675 24.7871 30.45L23.5871 29.2875L23.3996 29.025L19.3496 17.85Z" fill="#1C1B1F"/>
</g>
</svg>
