<svg width="36" height="36" viewBox="0 0 36 36" fill="none" xmlns="http://www.w3.org/2000/svg">
<mask id="mask0_1443_109658" style="mask-type:alpha" maskUnits="userSpaceOnUse" x="0" y="0" width="36" height="36">
<rect width="36" height="36" fill="#D9D9D9"/>
</mask>
<g mask="url(#mask0_1443_109658)">
<path d="M26.25 18C26.25 17.475 26.3 16.9688 26.4 16.4813C26.5 15.9938 26.625 15.5 26.775 15H28.5C28.75 15 28.975 14.95 29.175 14.85C29.375 14.75 29.55 14.6 29.7 14.4L30.7125 13.05C30.9375 12.75 31.0375 12.4125 31.0125 12.0375C30.9875 11.6625 30.8375 11.3375 30.5625 11.0625L29.5125 10.0125C29.2375 9.7375 28.9 9.59375 28.5 9.58125C28.1 9.56875 27.75 9.7 27.45 9.975C26.375 10.975 25.5313 12.1938 24.9188 13.6313C24.3063 15.0688 24 16.525 24 18C24 19.475 24.3063 20.9313 24.9188 22.3688C25.5313 23.8062 26.375 25.025 27.45 26.025C27.75 26.3 28.1 26.4312 28.5 26.4188C28.9 26.4062 29.2375 26.2625 29.5125 25.9875L30.5625 24.9375C30.8375 24.6625 30.9875 24.3375 31.0125 23.9625C31.0375 23.5875 30.9375 23.25 30.7125 22.95L29.7 21.6C29.55 21.4 29.375 21.25 29.175 21.15C28.975 21.05 28.75 21 28.5 21H26.775C26.625 20.55 26.5 20.0688 26.4 19.5563C26.3 19.0438 26.25 18.525 26.25 18ZM3 31.5C2.175 31.5 1.46875 31.2063 0.88125 30.6188C0.29375 30.0312 0 29.325 0 28.5V7.5C0 6.675 0.29375 5.96875 0.88125 5.38125C1.46875 4.79375 2.175 4.5 3 4.5H33C33.825 4.5 34.5312 4.79375 35.1188 5.38125C35.7062 5.96875 36 6.675 36 7.5V28.5C36 29.325 35.7062 30.0312 35.1188 30.6188C34.5312 31.2063 33.825 31.5 33 31.5H3ZM23.85 28.5H33V7.5H3V28.5H3.15C4.2 26.625 5.65 25.1562 7.5 24.0938C9.35 23.0312 11.35 22.5 13.5 22.5C15.65 22.5 17.65 23.0312 19.5 24.0938C21.35 25.1562 22.8 26.625 23.85 28.5ZM13.5 21C14.75 21 15.8125 20.5625 16.6875 19.6875C17.5625 18.8125 18 17.75 18 16.5C18 15.25 17.5625 14.1875 16.6875 13.3125C15.8125 12.4375 14.75 12 13.5 12C12.25 12 11.1875 12.4375 10.3125 13.3125C9.4375 14.1875 9 15.25 9 16.5C9 17.75 9.4375 18.8125 10.3125 19.6875C11.1875 20.5625 12.25 21 13.5 21ZM6.825 28.5H20.175C19.325 27.55 18.3188 26.8125 17.1562 26.2875C15.9937 25.7625 14.775 25.5 13.5 25.5C12.225 25.5 11.0125 25.7625 9.8625 26.2875C8.7125 26.8125 7.7 27.55 6.825 28.5ZM13.5 18C13.075 18 12.7188 17.8563 12.4313 17.5688C12.1438 17.2813 12 16.925 12 16.5C12 16.075 12.1438 15.7188 12.4313 15.4312C12.7188 15.1438 13.075 15 13.5 15C13.925 15 14.2813 15.1438 14.5688 15.4312C14.8563 15.7188 15 16.075 15 16.5C15 16.925 14.8563 17.2813 14.5688 17.5688C14.2813 17.8563 13.925 18 13.5 18Z" fill="#1C1B1F"/>
</g>
</svg>
