<svg width="36" height="36" viewBox="0 0 36 36" fill="none" xmlns="http://www.w3.org/2000/svg">
<mask id="mask0_1631_13021" style="mask-type:alpha" maskUnits="userSpaceOnUse" x="0" y="0" width="36" height="36">
<rect width="36" height="36" fill="#D9D9D9"/>
</mask>
<g mask="url(#mask0_1631_13021)">
<path d="M15.675 23.25C16.275 23.85 17.05 24.1438 18 24.1313C18.95 24.1188 19.65 23.775 20.1 23.1L26.4375 13.6125C26.6625 13.2625 26.6313 12.9437 26.3438 12.6562C26.0562 12.3688 25.7375 12.3375 25.3875 12.5625L15.9 18.9C15.225 19.35 14.8688 20.0375 14.8313 20.9625C14.7938 21.8875 15.075 22.65 15.675 23.25ZM18 6C18.9 6 19.7875 6.075 20.6625 6.225C21.5375 6.375 22.3875 6.6125 23.2125 6.9375C23.6125 7.0875 24.0375 7.36875 24.4875 7.78125C24.9375 8.19375 25.0625 8.5875 24.8625 8.9625C24.6625 9.3375 24.2125 9.5875 23.5125 9.7125C22.8125 9.8375 22.25 9.825 21.825 9.675C21.2 9.45 20.5688 9.28125 19.9313 9.16875C19.2938 9.05625 18.65 9 18 9C14.675 9 11.8438 10.1688 9.50625 12.5063C7.16875 14.8438 6 17.675 6 21C6 22.05 6.14375 23.0875 6.43125 24.1125C6.71875 25.1375 7.125 26.1 7.65 27H28.35C28.925 26.05 29.3438 25.0625 29.6063 24.0375C29.8688 23.0125 30 21.95 30 20.85C30 20.2 29.9438 19.5625 29.8313 18.9375C29.7188 18.3125 29.55 17.7 29.325 17.1C29.175 16.675 29.15 16.2625 29.25 15.8625C29.35 15.4625 29.575 15.125 29.925 14.85C30.25 14.6 30.6063 14.525 30.9938 14.625C31.3813 14.725 31.65 14.95 31.8 15.3C32.175 16.175 32.4625 17.0688 32.6625 17.9813C32.8625 18.8938 32.975 19.825 33 20.775C33.025 22.2 32.8625 23.5625 32.5125 24.8625C32.1625 26.1625 31.65 27.4 30.975 28.575C30.7 29.025 30.325 29.375 29.85 29.625C29.375 29.875 28.875 30 28.35 30H7.65C7.125 30 6.625 29.875 6.15 29.625C5.675 29.375 5.3 29.025 5.025 28.575C4.375 27.45 3.875 26.2563 3.525 24.9938C3.175 23.7313 3 22.4 3 21C3 18.925 3.39375 16.9813 4.18125 15.1688C4.96875 13.3563 6.04375 11.7688 7.40625 10.4062C8.76875 9.04375 10.3625 7.96875 12.1875 7.18125C14.0125 6.39375 15.95 6 18 6Z" fill="#1C1B1F"/>
</g>
</svg>
