<svg width="36" height="36" viewBox="0 0 36 36" fill="none" xmlns="http://www.w3.org/2000/svg">
<mask id="mask0_1431_78463" style="mask-type:alpha" maskUnits="userSpaceOnUse" x="0" y="0" width="36" height="36">
<rect width="36" height="36" fill="#D9D9D9"/>
</mask>
<g mask="url(#mask0_1431_78463)">
<path d="M13.5 31.6453C13.1 31.6453 12.75 31.5016 12.45 31.2141C12.15 30.9266 12 30.5578 12 30.1078V25.4578C9.475 25.2578 7.34375 24.2328 5.60625 22.3828C3.86875 20.5328 3 18.3203 3 15.7453C3 13.0203 3.94375 10.7141 5.83125 8.82656C7.71875 6.93906 10.025 5.99531 12.75 5.99531H13.7625L12.4125 4.64531C12.1375 4.37031 12 4.02656 12 3.61406C12 3.20156 12.15 2.84531 12.45 2.54531C12.725 2.27031 13.075 2.13281 13.5 2.13281C13.925 2.13281 14.275 2.27031 14.55 2.54531L18.45 6.44531C18.6 6.59531 18.7062 6.75781 18.7687 6.93281C18.8313 7.10781 18.8625 7.29531 18.8625 7.49531C18.8625 7.69531 18.8313 7.88281 18.7687 8.05781C18.7062 8.23281 18.6 8.39531 18.45 8.54531L14.55 12.4453C14.275 12.7203 13.9313 12.8641 13.5188 12.8766C13.1063 12.8891 12.75 12.7453 12.45 12.4453C12.175 12.1703 12.0375 11.8203 12.0375 11.3953C12.0375 10.9703 12.175 10.6203 12.45 10.3453L13.7625 8.99531H12.75C10.875 8.99531 9.28125 9.65156 7.96875 10.9641C6.65625 12.2766 6 13.8703 6 15.7453C6 17.6203 6.65625 19.2141 7.96875 20.5266C9.28125 21.8391 10.875 22.4953 12.75 22.4953H15V26.5078L19.0125 22.4953H23.25C25.125 22.4953 26.7188 21.8391 28.0312 20.5266C29.3438 19.2141 30 17.6203 30 15.7453C30 13.8703 29.3438 12.2766 28.0312 10.9641C26.7188 9.65156 25.125 8.99531 23.25 8.99531C22.825 8.99531 22.4688 8.85156 22.1813 8.56406C21.8938 8.27656 21.75 7.92031 21.75 7.49531C21.75 7.07031 21.8938 6.71406 22.1813 6.42656C22.4688 6.13906 22.825 5.99531 23.25 5.99531C25.975 5.99531 28.2813 6.93906 30.1688 8.82656C32.0563 10.7141 33 13.0203 33 15.7453C33 18.4703 32.0563 20.7766 30.1688 22.6641C28.2813 24.5516 25.975 25.4953 23.25 25.4953H20.25L14.55 31.1953C14.4 31.3453 14.2375 31.4578 14.0625 31.5328C13.8875 31.6078 13.7 31.6453 13.5 31.6453Z" fill="#1C1B1F"/>
</g>
</svg>
