<svg width="36" height="36" viewBox="0 0 36 36" fill="none" xmlns="http://www.w3.org/2000/svg">
<mask id="mask0_1431_78479" style="mask-type:alpha" maskUnits="userSpaceOnUse" x="0" y="0" width="36" height="36">
<rect width="36" height="36" fill="#D9D9D9"/>
</mask>
<g mask="url(#mask0_1431_78479)">
<path d="M34.5 13.5053C34.5 15.2303 34.1938 16.8741 33.5813 18.4366C32.9688 19.9991 32.1375 21.4178 31.0875 22.6928C30.7875 23.0428 30.4125 23.2303 29.9625 23.2553C29.5125 23.2803 29.1125 23.1178 28.7625 22.7678C28.4375 22.4428 28.2875 22.0553 28.3125 21.6053C28.3375 21.1553 28.4875 20.7428 28.7625 20.3678C29.5125 19.4178 30.0938 18.3553 30.5062 17.1803C30.9187 16.0053 31.125 14.7803 31.125 13.5053C31.125 12.2303 30.9187 11.0178 30.5062 9.86783C30.0938 8.71783 29.5125 7.66783 28.7625 6.71783C28.4625 6.34283 28.3063 5.93033 28.2938 5.48033C28.2813 5.03033 28.4375 4.63033 28.7625 4.28033C29.0875 3.93033 29.4812 3.76158 29.9437 3.77408C30.4062 3.78658 30.7875 3.96783 31.0875 4.31783C32.1375 5.59283 32.9688 7.01158 33.5813 8.57408C34.1938 10.1366 34.5 11.7803 34.5 13.5053ZM27.675 13.5053C27.675 14.3053 27.55 15.0741 27.3 15.8116C27.05 16.5491 26.7 17.2303 26.25 17.8553C25.975 18.2303 25.6062 18.4241 25.1437 18.4366C24.6812 18.4491 24.275 18.2803 23.925 17.9303C23.6 17.6053 23.4312 17.2116 23.4188 16.7491C23.4062 16.2866 23.5125 15.8428 23.7375 15.4178C23.8875 15.1428 24.0063 14.8428 24.0938 14.5178C24.1812 14.1928 24.225 13.8553 24.225 13.5053C24.225 13.1553 24.1812 12.8178 24.0938 12.4928C24.0063 12.1678 23.8875 11.8553 23.7375 11.5553C23.5125 11.1303 23.4062 10.6928 23.4188 10.2428C23.4312 9.79283 23.6 9.40533 23.925 9.08033C24.275 8.73033 24.6812 8.56158 25.1437 8.57408C25.6062 8.58658 25.975 8.78033 26.25 9.15533C26.7 9.78033 27.05 10.4616 27.3 11.1991C27.55 11.9366 27.675 12.7053 27.675 13.5053ZM13.5 19.5053C11.85 19.5053 10.4375 18.9178 9.2625 17.7428C8.0875 16.5678 7.5 15.1553 7.5 13.5053C7.5 11.8553 8.0875 10.4428 9.2625 9.26783C10.4375 8.09283 11.85 7.50533 13.5 7.50533C15.15 7.50533 16.5625 8.09283 17.7375 9.26783C18.9125 10.4428 19.5 11.8553 19.5 13.5053C19.5 15.1553 18.9125 16.5678 17.7375 17.7428C16.5625 18.9178 15.15 19.5053 13.5 19.5053ZM1.5 28.5053V27.3053C1.5 26.4803 1.7125 25.7053 2.1375 24.9803C2.5625 24.2553 3.15 23.7053 3.9 23.3303C5.175 22.6803 6.6125 22.1303 8.2125 21.6803C9.8125 21.2303 11.575 21.0053 13.5 21.0053C15.425 21.0053 17.1875 21.2303 18.7875 21.6803C20.3875 22.1303 21.825 22.6803 23.1 23.3303C23.85 23.7053 24.4375 24.2553 24.8625 24.9803C25.2875 25.7053 25.5 26.4803 25.5 27.3053V28.5053C25.5 29.3303 25.2063 30.0366 24.6188 30.6241C24.0312 31.2116 23.325 31.5053 22.5 31.5053H4.5C3.675 31.5053 2.96875 31.2116 2.38125 30.6241C1.79375 30.0366 1.5 29.3303 1.5 28.5053ZM4.5 28.5053H22.5V27.3053C22.5 27.0303 22.4312 26.7803 22.2938 26.5553C22.1562 26.3303 21.975 26.1553 21.75 26.0303C20.85 25.5803 19.6938 25.1303 18.2812 24.6803C16.8687 24.2303 15.275 24.0053 13.5 24.0053C11.725 24.0053 10.1313 24.2303 8.71875 24.6803C7.30625 25.1303 6.15 25.5803 5.25 26.0303C5.025 26.1553 4.84375 26.3303 4.70625 26.5553C4.56875 26.7803 4.5 27.0303 4.5 27.3053V28.5053ZM13.5 16.5053C14.325 16.5053 15.0313 16.2116 15.6188 15.6241C16.2063 15.0366 16.5 14.3303 16.5 13.5053C16.5 12.6803 16.2063 11.9741 15.6188 11.3866C15.0313 10.7991 14.325 10.5053 13.5 10.5053C12.675 10.5053 11.9688 10.7991 11.3813 11.3866C10.7937 11.9741 10.5 12.6803 10.5 13.5053C10.5 14.3303 10.7937 15.0366 11.3813 15.6241C11.9688 16.2116 12.675 16.5053 13.5 16.5053Z" fill="#1C1B1F"/>
</g>
</svg>
