<svg width="36" height="36" viewBox="0 0 36 36" fill="none" xmlns="http://www.w3.org/2000/svg">
<mask id="mask0_1431_78471" style="mask-type:alpha" maskUnits="userSpaceOnUse" x="0" y="0" width="36" height="36">
<rect width="36" height="36" fill="#D9D9D9"/>
</mask>
<g mask="url(#mask0_1431_78471)">
<path d="M15 10.5H25.5C25.925 10.5 26.2812 10.6437 26.5688 10.9312C26.8563 11.2188 27 11.575 27 12C27 12.425 26.8563 12.7812 26.5688 13.0688C26.2812 13.3562 25.925 13.5 25.5 13.5H15C14.575 13.5 14.2188 13.3562 13.9312 13.0688C13.6438 12.7812 13.5 12.425 13.5 12C13.5 11.575 13.6438 11.2188 13.9312 10.9312C14.2188 10.6437 14.575 10.5 15 10.5ZM15 15H25.5C25.925 15 26.2812 15.1438 26.5688 15.4313C26.8563 15.7188 27 16.075 27 16.5C27 16.925 26.8563 17.2813 26.5688 17.5688C26.2812 17.8563 25.925 18 25.5 18H15C14.575 18 14.2188 17.8563 13.9312 17.5688C13.6438 17.2813 13.5 16.925 13.5 16.5C13.5 16.075 13.6438 15.7188 13.9312 15.4313C14.2188 15.1438 14.575 15 15 15ZM9 33C7.75 33 6.6875 32.5625 5.8125 31.6875C4.9375 30.8125 4.5 29.75 4.5 28.5V25.5C4.5 25.075 4.64375 24.7188 4.93125 24.4313C5.21875 24.1438 5.575 24 6 24H9V6C9 5.175 9.29375 4.46875 9.88125 3.88125C10.4688 3.29375 11.175 3 12 3H28.5C29.325 3 30.0312 3.29375 30.6188 3.88125C31.2063 4.46875 31.5 5.175 31.5 6V15C31.5 15.425 31.3562 15.7813 31.0687 16.0688C30.7812 16.3563 30.425 16.5 30 16.5C29.575 16.5 29.2188 16.3563 28.9313 16.0688C28.6438 15.7813 28.5 15.425 28.5 15V6H12V24H16.5C16.925 24 17.2813 24.1438 17.5688 24.4313C17.8563 24.7188 18 25.075 18 25.5C18 25.925 17.8563 26.2812 17.5688 26.5688C17.2813 26.8563 16.925 27 16.5 27H7.5V28.5C7.5 28.925 7.64375 29.2812 7.93125 29.5687C8.21875 29.8562 8.575 30 9 30H16.5C16.925 30 17.2813 30.1438 17.5688 30.4313C17.8563 30.7188 18 31.075 18 31.5C18 31.925 17.8563 32.2812 17.5688 32.5687C17.2813 32.8562 16.925 33 16.5 33H9ZM21 31.5V29.025C21 28.825 21.0375 28.6312 21.1125 28.4437C21.1875 28.2562 21.3 28.0875 21.45 27.9375L29.2875 20.1375C29.5125 19.9125 29.7625 19.75 30.0375 19.65C30.3125 19.55 30.5875 19.5 30.8625 19.5C31.1625 19.5 31.45 19.5562 31.725 19.6688C32 19.7812 32.25 19.95 32.475 20.175L33.8625 21.5625C34.0625 21.7875 34.2188 22.0375 34.3313 22.3125C34.4438 22.5875 34.5 22.8625 34.5 23.1375C34.5 23.4125 34.45 23.6938 34.35 23.9813C34.25 24.2688 34.0875 24.525 33.8625 24.75L26.0625 32.55C25.9125 32.7 25.7438 32.8125 25.5563 32.8875C25.3688 32.9625 25.175 33 24.975 33H22.5C22.075 33 21.7188 32.8562 21.4313 32.5687C21.1438 32.2812 21 31.925 21 31.5ZM23.25 30.75H24.675L29.2125 26.175L28.5375 25.4625L27.825 24.7875L23.25 29.325V30.75ZM28.5375 25.4625L27.825 24.7875L29.2125 26.175L28.5375 25.4625Z" fill="#1C1B1F"/>
</g>
</svg>
