<svg width="36" height="36" viewBox="0 0 36 36" fill="none" xmlns="http://www.w3.org/2000/svg">
<mask id="mask0_1653_28471" style="mask-type:alpha" maskUnits="userSpaceOnUse" x="0" y="0" width="36" height="36">
<rect width="36" height="36" fill="#D9D9D9"/>
</mask>
<g mask="url(#mask0_1653_28471)">
<path d="M4.5 31.5C4.075 31.5 3.71875 31.3562 3.43125 31.0687C3.14375 30.7812 3 30.425 3 30C3 29.575 3.14375 29.2188 3.43125 28.9313C3.71875 28.6438 4.075 28.5 4.5 28.5H16.5V11.7375C15.85 11.5125 15.2875 11.1625 14.8125 10.6875C14.3375 10.2125 13.9875 9.65 13.7625 9H9L13.125 18.675C13.25 18.95 13.325 19.2312 13.35 19.5187C13.375 19.8062 13.3625 20.1 13.3125 20.4C13.0875 21.55 12.4688 22.4375 11.4563 23.0625C10.4438 23.6875 9.375 24 8.25 24C7.125 24 6.05625 23.6875 5.04375 23.0625C4.03125 22.4375 3.4125 21.55 3.1875 20.4C3.1375 20.1 3.125 19.8062 3.15 19.5187C3.175 19.2312 3.25 18.95 3.375 18.675L7.5 9H6C5.575 9 5.21875 8.85625 4.93125 8.56875C4.64375 8.28125 4.5 7.925 4.5 7.5C4.5 7.075 4.64375 6.71875 4.93125 6.43125C5.21875 6.14375 5.575 6 6 6H13.7625C14.0625 5.125 14.6 4.40625 15.375 3.84375C16.15 3.28125 17.025 3 18 3C18.975 3 19.85 3.28125 20.625 3.84375C21.4 4.40625 21.9375 5.125 22.2375 6H30C30.425 6 30.7812 6.14375 31.0687 6.43125C31.3562 6.71875 31.5 7.075 31.5 7.5C31.5 7.925 31.3562 8.28125 31.0687 8.56875C30.7812 8.85625 30.425 9 30 9H28.5L32.625 18.675C32.75 18.95 32.825 19.2312 32.85 19.5187C32.875 19.8062 32.8625 20.1 32.8125 20.4C32.5875 21.55 31.9688 22.4375 30.9563 23.0625C29.9438 23.6875 28.875 24 27.75 24C26.625 24 25.5562 23.6875 24.5438 23.0625C23.5312 22.4375 22.9125 21.55 22.6875 20.4C22.6375 20.1 22.625 19.8062 22.65 19.5187C22.675 19.2312 22.75 18.95 22.875 18.675L27 9H22.2375C22.0125 9.65 21.6625 10.2125 21.1875 10.6875C20.7125 11.1625 20.15 11.5125 19.5 11.7375V28.5H31.5C31.925 28.5 32.2812 28.6438 32.5687 28.9313C32.8562 29.2188 33 29.575 33 30C33 30.425 32.8562 30.7812 32.5687 31.0687C32.2812 31.3562 31.925 31.5 31.5 31.5H4.5ZM24.9375 19.5H30.5625L27.75 12.975L24.9375 19.5ZM5.4375 19.5H11.0625L8.25 12.975L5.4375 19.5ZM18 9C18.425 9 18.7813 8.85625 19.0688 8.56875C19.3563 8.28125 19.5 7.925 19.5 7.5C19.5 7.075 19.3563 6.71875 19.0688 6.43125C18.7813 6.14375 18.425 6 18 6C17.575 6 17.2188 6.14375 16.9313 6.43125C16.6438 6.71875 16.5 7.075 16.5 7.5C16.5 7.925 16.6438 8.28125 16.9313 8.56875C17.2188 8.85625 17.575 9 18 9Z" fill="#1C1B1F"/>
</g>
</svg>
