<svg width="36" height="36" viewBox="0 0 36 36" fill="none" xmlns="http://www.w3.org/2000/svg">
<mask id="mask0_1653_28463" style="mask-type:alpha" maskUnits="userSpaceOnUse" x="0" y="0" width="36" height="36">
<rect width="36" height="36" fill="#D9D9D9"/>
</mask>
<g mask="url(#mask0_1653_28463)">
<path d="M18 34.5C13.35 34.5 9.4375 33.6313 6.2625 31.8938C3.0875 30.1563 1.5 28.025 1.5 25.5C1.5 24.775 1.65 24.0688 1.95 23.3813C2.25 22.6938 2.6875 22.025 3.2625 21.375C3.8375 20.725 4.54375 20.1438 5.38125 19.6313C6.21875 19.1188 7.1625 18.65 8.2125 18.225C8.5875 18.075 8.95625 18.0938 9.31875 18.2812C9.68125 18.4688 9.925 18.7625 10.05 19.1625C10.175 19.5375 10.1438 19.9062 9.95625 20.2687C9.76875 20.6313 9.4875 20.9 9.1125 21.075C8.4125 21.35 7.78125 21.6562 7.21875 21.9938C6.65625 22.3313 6.175 22.7 5.775 23.1C5.35 23.5 5.03125 23.9062 4.81875 24.3188C4.60625 24.7313 4.5 25.125 4.5 25.5C4.5 27.1 5.85 28.5 8.55 29.7C11.25 30.9 14.4 31.5 18 31.5C21.6 31.5 24.75 30.9 27.45 29.7C30.15 28.5 31.5 27.1 31.5 25.5C31.5 25.125 31.3938 24.7313 31.1813 24.3188C30.9688 23.9062 30.65 23.5 30.225 23.1C29.825 22.7 29.3438 22.3313 28.7812 21.9938C28.2188 21.6562 27.5875 21.35 26.8875 21.075C26.5125 20.9 26.2313 20.6313 26.0438 20.2687C25.8563 19.9062 25.825 19.5375 25.95 19.1625C26.075 18.7625 26.3188 18.4688 26.6813 18.2812C27.0438 18.0938 27.4125 18.075 27.7875 18.225C28.7125 18.6 29.5562 19.0188 30.3187 19.4813C31.0812 19.9438 31.75 20.45 32.325 21C33.05 21.675 33.5938 22.3937 33.9563 23.1562C34.3188 23.9188 34.5 24.7 34.5 25.5C34.5 28.025 32.9125 30.1563 29.7375 31.8938C26.5625 33.6313 22.65 34.5 18 34.5ZM15 28.5C14.575 28.5 14.2188 28.3562 13.9313 28.0687C13.6438 27.7812 13.5 27.425 13.5 27V12H7.5C7.075 12 6.71875 11.8562 6.43125 11.5688C6.14375 11.2812 6 10.925 6 10.5C6 10.075 6.14375 9.71875 6.43125 9.43125C6.71875 9.14375 7.075 9 7.5 9H28.5C28.925 9 29.2812 9.14375 29.5687 9.43125C29.8562 9.71875 30 10.075 30 10.5C30 10.925 29.8562 11.2812 29.5687 11.5688C29.2812 11.8562 28.925 12 28.5 12H22.5V27C22.5 27.425 22.3563 27.7812 22.0688 28.0687C21.7812 28.3562 21.425 28.5 21 28.5C20.575 28.5 20.2188 28.3562 19.9313 28.0687C19.6438 27.7812 19.5 27.425 19.5 27V21H16.5V27C16.5 27.425 16.3563 27.7812 16.0688 28.0687C15.7813 28.3562 15.425 28.5 15 28.5ZM18 7.5C17.175 7.5 16.4688 7.20625 15.8813 6.61875C15.2938 6.03125 15 5.325 15 4.5C15 3.675 15.2938 2.96875 15.8813 2.38125C16.4688 1.79375 17.175 1.5 18 1.5C18.825 1.5 19.5312 1.79375 20.1188 2.38125C20.7063 2.96875 21 3.675 21 4.5C21 5.325 20.7063 6.03125 20.1188 6.61875C19.5312 7.20625 18.825 7.5 18 7.5Z" fill="#1C1B1F"/>
</g>
</svg>
